Coordinates
version=1
nRows=18
nColumns=32
inDegrees=yes

Units are S.I. units (second, meters, Newtons, ...)
If the header above contains a line with 'inDegrees', this indicates whether rotational values are in degrees (yes) or radians (no).

endheader
time	pelvis_tilt	pelvis_list	pelvis_rotation	pelvis_tx	pelvis_ty	pelvis_tz	hip_flexion_r	hip_adduction_r	hip_rotation_r	knee_angle_r	knee_adduction_r	med_cond_adduction_r	lat_cond_adduction_r	patella_r_constrained_knee_angle	hip_flexion_l	hip_adduction_l	hip_rotation_l	knee_angle_l	knee_adduction_l	med_cond_adduction_l	lat_cond_adduction_l	patella_l_constrained_knee_angle	lumbar_extension	lumbar_bending	lumbar_rotation	ankle_angle_r	subtalar_angle_r	mtp_angle_r	ankle_angle_l	subtalar_angle_l	mtp_angle_l
      2.05000000	    -16.78809184	      1.11629831	      9.65722635	      0.63130968	      0.67421621	     -0.32371907	     46.07845145	     -4.00227777	      0.08241044	    -10.17433092	     -6.43557494	      0.00000000	      0.00000000	     -0.17757557	      6.10083451	      3.68622908	      0.38800985	    -22.49074744	     -4.89462816	     -0.00000000	     -0.00000000	     -0.39253759	      0.57183377	     -6.45790260	    -10.86949347	      3.21679239	      4.56687535	      0.00000000	     10.18052443	     13.80730012	      0.00000000
      2.05500000	    -16.58764482	      0.97896949	      9.58414831	      0.63935020	      0.67343557	     -0.32326827	     46.01768158	     -3.67688659	     -0.28001857	    -11.18930965	     -6.33156077	      0.00000000	      0.00000000	     -0.19529029	      5.78351244	      3.22230984	      0.33968901	    -23.49039792	     -4.72207276	     -0.00000000	     -0.00000000	     -0.40998479	      0.61547042	     -6.05746406	    -10.84886529	      3.10450966	      5.01091073	      0.00000000	      9.58760478	     13.84014942	     -0.00000000
      2.06000000	    -16.35297261	      0.84921325	      9.48226328	      0.64736339	      0.67268558	     -0.32282582	     45.91142300	     -3.32724742	     -0.50614704	    -12.28742110	     -6.21054635	      0.00000000	      0.00000000	     -0.21445595	      5.50682446	      2.76883349	      0.35769371	    -24.62167090	     -4.50708203	      0.00000000	      0.00000000	     -0.42972922	      0.60060763	     -5.59358470	    -10.73081818	      2.60774077	      4.74389344	     -0.00000000	      8.72513509	     13.58731264	     -0.00000000
      2.06500000	    -16.13180270	      0.60532520	      9.42731550	      0.65541727	      0.67194063	     -0.32238386	     45.85422749	     -2.88130364	     -0.92896724	    -13.50834836	     -6.16654112	      0.00000000	      0.00000000	     -0.23576516	      5.40179194	      2.15445952	      0.45659209	    -26.00704366	     -4.18590768	     -0.00000000	     -0.00000000	     -0.45390854	      0.63332354	     -5.07451313	    -10.77056589	      2.57966772	      5.65564238	     -0.00000000	      8.11073090	     13.76008413	     -0.00000000
      2.07000000	    -15.87848703	      0.38389557	      9.33623426	      0.66344219	      0.67123438	     -0.32195202	     45.75479718	     -2.42440287	     -1.16505176	    -14.76741531	     -6.11140713	      0.00000000	      0.00000000	     -0.25774002	      5.34577923	      1.58729984	      0.57735036	    -27.52476377	     -3.86168129	      0.00000000	      0.00000000	     -0.48039775	      0.61287587	     -4.50080019	    -10.65432069	      2.11950947	      5.81029487	     -0.00000000	      7.12786744	     13.64924336	      0.00000000
      2.07500000	    -15.63306031	      0.16028597	      9.23557362	      0.67143788	      0.67054725	     -0.32151303	     45.65982157	     -1.94988462	     -1.26602230	    -16.04578490	     -6.05649162	     -0.00000000	     -0.00000000	     -0.28005178	      5.40150893	      1.02592724	      0.75053273	    -29.20367584	     -3.49313525	     -0.00000000	     -0.00000000	     -0.50970030	      0.60301066	     -3.94918913	    -10.51632504	      1.45520533	      5.80629430	     -0.00000000	      5.85207663	     13.46637701	      0.00000000
      2.08000000	    -15.34993756	     -0.14079671	      9.13263231	      0.67938014	      0.66991735	     -0.32105395	     45.52685055	     -1.37363378	     -1.34927840	    -17.30796760	     -6.06099309	      0.00000000	      0.00000000	     -0.30208102	      5.55504925	      0.34208715	      0.97004017	    -31.07177491	     -3.02143037	     -0.00000000	     -0.00000000	     -0.54230478	      0.53942283	     -3.24890789	    -10.43374481	      0.92757758	      5.78420109	      0.00000000	      4.64326974	     13.22654992	     -0.00000000
      2.08500000	    -15.03617317	     -0.45575329	      9.02580842	      0.68728266	      0.66936037	     -0.32056837	     45.35278752	     -0.74724696	     -1.30291274	    -18.54477945	     -6.10714121	      0.00000000	      0.00000000	     -0.32366746	      5.77033093	     -0.35484426	      1.22738009	    -33.06367237	     -2.51340618	     -0.00000000	     -0.00000000	     -0.57706995	      0.41210988	     -2.58847970	    -10.50844913	     -0.18518601	      5.33598391	      0.00000000	      2.60799124	     12.56054926	     -0.00000000
      2.09000000	    -14.79829216	     -0.81267873	      8.90499323	      0.69507828	      0.66873175	     -0.32008283	     45.29871093	     -0.09597235	     -1.13513994	    -19.83384953	     -6.10797891	     -0.00000000	     -0.00000000	     -0.34616598	      6.20775787	     -1.11095346	      1.50389404	    -35.22448526	     -1.91548608	      0.00000000	      0.00000000	     -0.61478325	      0.41031901	     -1.80106201	    -10.27507206	     -0.42369542	      5.64186527	      0.00000000	      1.37940543	     12.74502321	     -0.00000000
      2.09500000	    -14.52683670	     -1.16541626	      8.77466967	      0.70279775	      0.66820577	     -0.31956463	     45.18149460	      0.59381691	     -0.79460116	    -21.04447891	     -6.14517297	      0.00000000	      0.00000000	     -0.36729545	      6.68432480	     -1.86139617	      1.85622264	    -37.45662233	     -1.25897801	     -0.00000000	     -0.00000000	     -0.65374139	      0.30140259	     -1.08943072	    -10.19768047	     -1.32493206	      5.18404048	     -0.00000000	     -0.56758229	     11.95084945	      0.00000000
      2.10000000	    -14.27466912	     -1.56715431	      8.64494363	      0.71041388	      0.66769137	     -0.31903553	     45.06993789	      1.32097139	     -0.30666078	    -22.21595092	     -6.12463513	     -0.00000000	     -0.00000000	     -0.38774149	      7.29828116	     -2.68047995	      2.23432262	    -39.80942632	     -0.54667621	     -0.00000000	     -0.00000000	     -0.69480556	      0.22690449	     -0.29133240	    -10.05716069	     -1.91352158	      4.93786980	     -0.00000000	     -2.24649322	     11.76470695	      0.00000000
      2.10500000	    -14.05462866	     -1.96194437	      8.48549971	      0.71794474	      0.66719793	     -0.31844460	     44.97069493	      2.06121225	      0.37805348	    -23.33918910	     -6.05526656	     -0.00000000	     -0.00000000	     -0.40734569	      8.02429760	     -3.49613360	      2.64657832	    -42.22982907	      0.23076891	      0.00000000	      0.00000000	     -0.73704956	      0.21330830	      0.40687967	     -9.85441085	     -2.36516244	      4.58907195	      0.00000000	     -3.79636757	     11.40010452	      0.00000000
      2.11000000	    -13.72632241	     -2.36003537	      8.31783679	      0.72534845	      0.66687816	     -0.31784334	     44.78153370	      2.83061378	      1.07296254	    -24.51941006	     -5.98756569	      0.00000000	      0.00000000	     -0.42794444	      8.67010062	     -4.31889292	      3.00863417	    -44.58876158	      0.95423539	      0.00000000	      0.00000000	     -0.77822070	     -0.08902516	      1.21278133	     -9.68251278	     -2.69659241	      3.88826988	      0.00000000	     -5.72779583	     10.68615853	     -0.00000000
      2.11500000	    -13.51265101	     -2.73487175	      8.14323018	      0.73266571	      0.66651836	     -0.31724241	     44.64304483	      3.54507350	      2.01533049	    -25.59765411	     -5.79269238	     -0.00000000	     -0.00000000	     -0.44676335	      9.52518698	     -5.10640185	      3.42767284	    -47.00908186	      1.74526589	      0.00000000	      0.00000000	     -0.82046326	     -0.16410294	      1.85960295	     -9.41479089	     -2.91809100	      2.46126529	     -0.00000000	     -8.43922589	     10.23948965	     -0.00000000
      2.12000000	    -13.24148056	     -3.14049756	      7.96446301	      0.73986972	      0.66627912	     -0.31665481	     44.40945861	      4.28359729	      2.98681445	    -26.62195632	     -5.51497151	      0.00000000	      0.00000000	     -0.46464079	     10.36429356	     -5.92924295	      3.81384939	    -49.41687106	      2.49522260	      0.00000000	      0.00000000	     -0.86248711	     -0.40447195	      2.58781543	     -9.15313405	     -3.01916810	      1.57022331	     -0.00000000	     -9.75515577	      9.70701265	     -0.00000000
      2.12500000	    -12.98150871	     -3.54405883	      7.76834085	      0.74696184	      0.66614018	     -0.31608546	     44.15752279	      4.99990295	      3.90868783	    -27.58755157	     -5.20492782	     -0.00000000	     -0.00000000	     -0.48149361	     11.27247623	     -6.73163662	      4.16787923	    -51.80775969	      3.20510568	     -0.00000000	     -0.00000000	     -0.90421598	     -0.64233102	      3.33683168	     -8.94758991	     -2.98297917	      1.05953325	     -0.00000000	    -10.46460823	      9.22185345	      0.00000000
      2.13000000	    -12.77594576	     -3.91237998	      7.59269871	      0.75396734	      0.66605296	     -0.31555239	     43.89583349	      5.62522587	      4.88752112	    -28.47627314	     -4.76241812	     -0.00000000	     -0.00000000	     -0.49700473	     12.28380905	     -7.46338125	      4.50359899	    -54.16162098	      3.84353830	     -0.00000000	     -0.00000000	     -0.94529861	     -0.79741829	      3.96322326	     -8.63870460	     -2.69978244	     -0.81110201	     -0.00000000	    -12.53144065	      8.57470679	      0.00000000
      2.13500000	    -12.55063110	     -4.26373374	      7.38882205	      0.76085154	      0.66610315	     -0.31505207	     43.55611397	      6.22777965	      5.82268856	    -29.27506736	     -4.28589190	      0.00000000	      0.00000000	     -0.51094631	     13.30170486	     -8.15549132	      4.72680501	    -56.45910522	      4.37641845	     -0.00000000	     -0.00000000	     -0.98539728	     -1.05037187	      4.55677047	     -8.33107229	     -2.51596793	     -2.47937930	     -0.00000000	    -13.15937619	      7.84291021	      0.00000000
